<svg width="10" height="13" viewBox="0 0 10 13" fill="none" xmlns="http://www.w3.org/2000/svg">
<path d="M0.51 7.522C0.51 7.30733 0.575333 7.102 0.706 6.906C0.827333 6.71 0.986 6.54667 1.182 6.416C1.378 6.29467 1.574 6.234 1.77 6.234C1.994 6.234 2.232 6.32733 2.484 6.514C2.736 6.70067 2.98333 6.92 3.226 7.172C3.478 7.43333 3.69267 7.662 3.87 7.858V2.076C3.87 1.544 3.912 1.166 3.996 0.942C4.08 0.718 4.22 0.540667 4.416 0.41C4.60267 0.279333 4.864 0.214 5.2 0.214C5.536 0.214 5.79733 0.274667 5.984 0.396C6.17067 0.526667 6.31067 0.704 6.404 0.928C6.488 1.152 6.53 1.53467 6.53 2.076V7.858L7.188 7.172C7.56133 6.78933 7.846 6.53733 8.042 6.416C8.24733 6.29467 8.44333 6.234 8.63 6.234C8.826 6.234 9.022 6.29467 9.218 6.416C9.414 6.53733 9.57267 6.696 9.694 6.892C9.82467 7.09733 9.89 7.30733 9.89 7.522C9.89 7.70867 9.82933 7.90933 9.708 8.124C9.596 8.33867 9.4 8.59067 9.12 8.88L5.2 12.912L1.364 8.964C1.04667 8.628 0.827333 8.35267 0.706 8.138C0.575333 7.92333 0.51 7.718 0.51 7.522Z" fill="white"/>
</svg>
