<svg width="14" height="10" viewBox="0 0 14 10" fill="none" xmlns="http://www.w3.org/2000/svg">
<path d="M8.022 9.49C7.80733 9.49 7.602 9.42467 7.406 9.294C7.21 9.17267 7.04667 9.014 6.916 8.818C6.79467 8.622 6.734 8.426 6.734 8.23C6.734 8.006 6.82733 7.768 7.014 7.516C7.20067 7.264 7.42 7.01667 7.672 6.774C7.93333 6.522 8.162 6.30733 8.358 6.13H2.576C2.044 6.13 1.666 6.088 1.442 6.004C1.218 5.92 1.04067 5.78 0.91 5.584C0.779333 5.39733 0.714 5.136 0.714 4.8C0.714 4.464 0.774667 4.20267 0.896 4.016C1.02667 3.82933 1.204 3.68933 1.428 3.596C1.652 3.512 2.03467 3.47 2.576 3.47H8.358L7.672 2.812C7.28933 2.43867 7.03733 2.154 6.916 1.958C6.79467 1.75267 6.734 1.55667 6.734 1.37C6.734 1.174 6.79467 0.978 6.916 0.782C7.03733 0.586 7.196 0.427333 7.392 0.305999C7.59733 0.175333 7.80733 0.109999 8.022 0.109999C8.20867 0.109999 8.40933 0.170666 8.624 0.291999C8.83867 0.404 9.09067 0.6 9.38 0.879999L13.412 4.8L9.464 8.636C9.128 8.95333 8.85267 9.17267 8.638 9.294C8.42333 9.42467 8.218 9.49 8.022 9.49Z" fill="black"/>
</svg>
